# xmcd CD database file
# Generated: Fri Oct 10 09:16:39 2003 by KSCD
# 
# Track frame offsets:
#       150
#       16592
#       35208
#       54704
#       72566
#       89254
#       102610
#       121170
#       139025
#       158737
#       177080
#       199960
#       220257
#       243566
#       259976
#       282025
#       306072
#
# Disc length: 4391 seconds
#
# Revision: 7
# Processed by: cddbd v1.4PL0 Copyright (c) Steve Scherf et al.
# Submitted via: Kscd 1.3.3
#
DISCID=fa112511
DTITLE=Robert Cray - Strong Persuader
DYEAR=1900
DGENRE=
TTITLE0=Room 16
TTITLE1=Smoking Gun
TTITLE2=Because of Me
TTITLE3=Nothing but a Woman
TTITLE4=You were still around
TTITLE5=
TTITLE6=
TTITLE7=
TTITLE8=
TTITLE9=
TTITLE10=
TTITLE11=
TTITLE12=
TTITLE13=
TTITLE14=
TTITLE15=
TTITLE16=
EXTD=
EXTT0=
EXTT1=
EXTT2=
EXTT3=
EXTT4=
EXTT5=
EXTT6=
EXTT7=
EXTT8=
EXTT9=
EXTT10=
EXTT11=
EXTT12=
EXTT13=
EXTT14=
EXTT15=
EXTT16=
PLAYORDER=
